<?xml version="1.0" encoding="UTF-8" standalone="no"?>
<!-- Created with Inkscape (http://www.inkscape.org/) -->

<svg
   width="210mm"
   height="297mm"
   viewBox="0 0 210 297"
   version="1.1"
   id="svg1"
   sodipodi:docname="walls.svg"
   inkscape:version="1.4.1-rc (06eac75fbf, 2025-03-29)"
   inkscape:export-filename="../f8d3d71f/wall01.svg"
   inkscape:export-xdpi="96"
   inkscape:export-ydpi="96"
   xmlns:inkscape="http://www.inkscape.org/namespaces/inkscape"
   xmlns:sodipodi="http://sodipodi.sourceforge.net/DTD/sodipodi-0.dtd"
   xmlns="http://www.w3.org/2000/svg"
   xmlns:svg="http://www.w3.org/2000/svg">
  <sodipodi:namedview
     id="namedview1"
     pagecolor="#000000"
     bordercolor="#000000"
     borderopacity="0.25"
     inkscape:showpageshadow="2"
     inkscape:pageopacity="0.0"
     inkscape:pagecheckerboard="0"
     inkscape:deskcolor="#d1d1d1"
     inkscape:document-units="mm"
     inkscape:zoom="0.73260647"
     inkscape:cx="476.38127"
     inkscape:cy="464.77886"
     inkscape:window-width="2494"
     inkscape:window-height="1371"
     inkscape:window-x="0"
     inkscape:window-y="0"
     inkscape:window-maximized="1"
     inkscape:current-layer="layer1" />
  <defs
     id="defs1" />
  <g
     inkscape:label="Layer 1"
     inkscape:groupmode="layer"
     id="layer1">
    <path
       style="fill:#ffffff;stroke-width:0.264583"
       d="m 86.571795,105.2141 c 0.510749,-0.51075 0.964282,-1.08599 1.532245,-1.53224 0.631465,-0.49616 1.38272,-0.81976 2.042993,-1.27687 0.790893,-0.54755 1.836769,-2.00667 2.809113,-2.29837 3.018838,-0.905651 7.588344,-0.766123 10.725714,-0.766123 2.12169,0 4.97794,0.337134 7.15047,-0.255373 4.60194,-1.255075 8.58222,-4.339876 12.51333,-6.8951 0.67332,-0.437661 1.38509,-0.816343 2.04299,-1.276869 0.56532,-0.395724 0.35866,-0.600413 1.02149,-0.766122 1.65205,-0.413012 13.07389,2.0041 13.27945,2.042991 0.0282,0.0053 3.37421,0.512564 3.83062,0.766122 1.72216,0.95676 1.65823,1.261364 3.31986,2.55374 0.91392,0.710835 1.90501,1.319707 2.80911,2.042993 1.22567,0.980535 2.39398,2.030886 3.57524,3.064491 0.27179,0.23782 0.44309,0.60461 0.76612,0.76612 0.57,0.285 1.00412,0.82419 1.53225,1.27687 1.60861,1.37881 3.01639,2.93662 4.59673,4.34136 1.4288,1.27004 2.99336,2.48262 4.34136,3.83061 0.65044,0.65045 1.06747,1.77912 1.53224,2.55374 0.82635,1.37724 1.67479,2.7417 2.55374,4.08598 0.34214,0.52328 2.53398,2.98546 2.80911,4.08599 0.35342,1.41368 0.0516,7.37068 -0.51074,8.68272 -0.25025,0.5839 -1.01526,1.26438 -1.27687,1.78761 -0.24077,0.48154 -0.22171,1.07804 -0.51075,1.53225 -0.39364,0.61857 -2.33566,2.65958 -3.06449,3.06449 -1.39808,0.77671 -2.7801,1.69604 -4.34136,2.04299 -0.50546,0.11232 -1.05908,0.0451 -1.53224,0.25537 -0.94049,0.418 -3.07314,3.35447 -3.31987,4.34136 -0.48216,1.92868 0.59637,3.75091 0.76613,5.61823 0.13709,1.50805 -0.18807,3.09217 0,4.59673 0.0538,0.4307 0.25537,0.84282 0.25537,1.27687 0,0.35098 -0.14438,0.68853 -0.25537,1.0215 -0.27499,0.82496 -1.08737,0.89786 -1.53225,1.78762 -0.44609,0.89217 0.6783,2.87498 -0.25537,3.57523 -0.52505,0.39379 -2.39348,1.05296 -3.06449,1.53225 -0.69544,0.49674 -1.28064,1.66181 -2.04299,2.04299 -1.60694,0.80347 -6.1901,0.81838 -7.9166,1.02149 -1.68874,0.19868 -1.43103,0.94559 -2.55374,1.78762 -0.79058,0.59294 -1.51212,0.49063 -2.29837,1.27687 -0.61344,0.61345 -0.002,2.86273 -1.02149,4.08599 -0.65854,0.79024 -2.32313,1.43642 -3.06449,2.04299 -2.23352,1.82743 -4.60567,5.63611 -5.8736,8.17197 -0.28799,0.57598 0.0984,2.63094 0,3.31986 -0.11235,0.78646 -0.42191,0.95497 -0.25537,1.78762 0.14972,0.74862 1.59497,2.20427 1.02149,3.06449 -0.28742,0.43113 -1.56978,1.0797 -2.04299,1.27687 -1.62004,0.67501 -3.54246,1.0051 -5.10748,1.78762 -0.38069,0.19034 -0.63029,0.59846 -1.0215,0.76612 -0.23472,0.1006 -0.51201,-0.0254 -0.76612,0 -3.59958,0.35996 -7.11775,0.24053 -10.72571,0 -0.84936,-0.0566 -1.70907,0.10558 -2.55374,0 -0.34827,-0.0435 -0.67133,-0.23147 -1.0215,-0.25537 -0.88952,-0.0607 -1.5263,-0.45033 -2.55374,-1.0215 -0.45671,-0.25389 -0.76347,-0.7648 -1.27687,-1.0215 -1.655304,-0.82765 -1.907714,-0.57721 -3.319859,-1.78762 -0.581096,-0.49808 -0.05081,-1.02132 -1.276871,-1.78761 -0.777462,-0.48592 -1.733709,-0.61148 -2.55374,-1.0215 -0.274518,-0.13726 -0.481152,-0.39676 -0.766122,-0.51075 -0.797994,-0.3192 -3.644238,0 -4.085984,0 -2.383491,0 -4.768741,0.0916 -7.150473,0 -2.886755,-0.11103 -5.251971,-0.95333 -8.171968,-1.78762 -0.753159,-0.24244 -1.485319,-0.72649 -1.787618,-1.02149 -0.230766,-0.22519 -0.61577,-1.26913 -0.766122,-1.53225 -0.422339,-0.73908 -1.060058,-1.33471 -1.532244,-2.04299 -1.512795,-2.26919 -2.719952,-4.64954 -3.064489,-7.40584 -0.04223,-0.33787 0.05598,-0.68564 0,-1.0215 -0.310499,-1.863 -2.698607,-1.28429 -2.298367,-4.08599 0.15032,-1.05223 0.865682,-2.48453 1.021496,-3.57523 0.04815,-0.33708 -0.07386,-0.68911 0,-1.0215 0.162988,-0.73345 1.101304,-2.75059 2.042993,-3.06449 0.732311,-0.2441 2.486715,0.0335 3.064489,-0.25537 2.300332,-1.15017 3.016538,-2.6095 4.341357,-4.59674 0.333888,-0.50082 0.891529,-0.81445 1.276871,-1.27686 0.36621,-0.43946 1.455756,-2.52908 1.532245,-3.06449 0.166878,-1.16815 -0.106974,-2.39852 0,-3.57524 0.204242,-2.24668 0.683358,-4.92955 0,-7.15047 -0.416976,-1.35517 -1.281377,-2.73601 -1.787618,-4.08598 -0.597141,-1.59238 -0.911807,-3.20933 -1.276871,-4.85211 -0.489627,-2.20332 -0.460941,-7.69835 -0.255373,-9.95959 0.112567,-1.23824 0.614278,-2.36049 0.766122,-3.57524 0.09429,-0.75433 -0.09429,-1.54403 0,-2.29836 0.41785,-3.6528 1.994727,-5.21308 3.830608,-7.66122"
       id="path1"
       sodipodi:nodetypes="csssssssscsssssssssssssssscsssssssssssscsssssssscssssssssssssssssssssscssssssssssc" />
  </g>
</svg>
