<?xml version="1.0" encoding="UTF-8" standalone="no"?>
<!-- Created with Inkscape (http://www.inkscape.org/) -->

<svg
   width="113.03793mm"
   height="111.55906mm"
   viewBox="0 0 113.03793 111.55906"
   version="1.1"
   id="svg1"
   xmlns="http://www.w3.org/2000/svg"
   xmlns:svg="http://www.w3.org/2000/svg">
  <defs
     id="defs1" />
  <g
     id="layer1"
     transform="translate(-57.732728,-146.83398)">
    <path
       id="path1-5"
       style="fill:#808080;stroke-width:0.264583"
       d="m 122.46484,146.83398 c -1.89336,0.0939 -3.10254,1.76413 -4.69519,2.55757 -3.83071,2.4067 -7.46013,5.42693 -11.94217,6.52527 -2.82856,0.53796 -5.78436,-0.0248 -8.685959,0.1436 -3.395378,0.0794 -6.962264,-0.0292 -10.1151,1.41919 -1.558121,0.92169 -2.627708,2.51835 -4.310697,3.24746 -1.19448,0.89063 -2.14942,2.16285 -3.620139,2.62222 -2.027276,1.09075 -4.270108,1.87987 -6.064129,3.34026 -2.360537,2.87154 -4.58904,6.26888 -4.524717,10.13111 0.154983,1.98864 -0.729752,3.84495 -0.789593,5.81539 -0.227067,2.97624 -0.143729,5.98021 0.153787,8.94788 0.45205,3.58733 1.646155,7.04846 3.240291,10.27987 0.794121,2.7922 -0.389094,5.65664 -0.0062,8.48638 0.108583,1.37093 -0.809004,2.47397 -1.719979,3.37684 -1.036736,1.07787 -1.646514,2.4894 -2.691652,3.55032 -0.7043,0.75799 -1.743017,0.3145 -2.625,0.52149 -1.697411,0.24044 -3.220111,1.31763 -4.013671,2.83594 -1.00317,1.47644 -1.209766,3.28901 -1.528393,4.99293 -0.680364,2.01077 -1.3257,4.39154 -0.114592,6.34049 0.394501,0.76204 1.190462,1.25512 1.680761,1.88731 0.305523,4.10932 2.526577,7.74337 4.915543,10.97788 0.784379,1.70585 2.096384,3.33903 4.002481,3.79639 3.795654,1.40175 7.81735,2.26172 11.876864,2.19376 2.586319,0.0438 5.185975,-0.18411 7.761126,-0.1365 0.736126,0.40529 1.503763,0.73462 2.321697,0.92024 0.542943,0.33354 0.627722,1.07814 1.136178,1.47931 1.108858,1.24019 2.747184,1.75144 4.154323,2.53321 1.900004,1.58923 4.32374,2.48678 6.79851,2.54535 2.15572,0.0722 4.31264,0.10512 6.46658,0.21891 2.59922,0.041 5.20814,-0.0589 7.79259,-0.28639 1.29321,-0.43217 2.28547,-1.52513 3.67284,-1.71912 2.41904,-0.74945 5.16766,-1.52336 6.61641,-3.78513 0.90783,-1.61834 0.37215,-3.62889 -0.59199,-5.09341 0.27186,-1.07532 0.26493,-2.19328 0.0723,-3.27734 0.17764,-0.9009 0.87692,-1.59011 1.27127,-2.40684 1.28935,-2.22117 2.90726,-4.39917 5.28537,-5.53066 1.84011,-1.11058 3.18263,-3.12839 3.11241,-5.32336 -0.0587,-0.46659 0.65738,-0.39751 0.90517,-0.6825 0.7123,-0.367 1.29057,-0.98183 1.84395,-1.50107 2.63871,-0.30657 5.39048,-0.13223 7.92261,-1.06339 1.23182,-0.4154 2.21061,-1.29 3.01619,-2.28004 0.72301,-0.85105 1.93991,-0.83924 2.78794,-1.52129 1.27123,-0.76572 2.22903,-2.21178 2.201,-3.66722 0.0892,-0.51968 -0.24351,-1.1079 -0.0747,-1.57347 1.45042,-1.43091 2.08301,-3.64895 1.48077,-5.61119 -0.17695,-1.87073 0.21956,-3.76709 -0.19739,-5.62295 -0.14421,-1.12357 -0.66509,-2.20363 -0.664,-3.33516 0.2759,-0.8555 0.94739,-1.52202 1.49218,-2.20899 0.82817,-0.32181 1.7466,-0.36174 2.55795,-0.7611 3.16758,-1.21078 6.07121,-3.34169 7.88764,-6.23182 0.46048,-0.94147 0.77676,-1.96848 1.50754,-2.74927 1.18107,-1.92697 1.05642,-4.29192 1.27072,-6.46167 0.17028,-2.51581 0.18456,-5.28959 -1.38916,-7.41028 -1.33728,-1.94251 -2.96054,-3.69543 -3.99611,-5.83548 -1.17329,-2.1465 -2.47196,-4.3204 -4.50351,-5.76554 -3.35215,-2.82901 -6.41286,-5.98215 -9.73255,-8.84797 -2.67584,-2.43305 -5.65447,-4.50019 -8.44615,-6.79247 -1.36918,-1.06441 -3.03574,-1.67733 -4.75793,-1.82604 -5.12638,-0.83639 -10.18814,-2.22986 -15.4043,-2.37891 z" />
  </g>
</svg>
